 http://img261.imageshack.us/img261/5923/poster1l.jpg



[i][b]Aka: Hanuman Cook Phoon
Year: 2008
Country: Thailand
Language: Thai
Subtitle(s): English
Film Genre: Action/Fantasy/Supernatural
Director : Sukchai Sriboonnark
Cast : Sornram Theppitak, Yardthip Rachpal, Odett Henriet
IMDB: http://www.imdb.com/title/tt1320380/


Plot:

In the ancient time before Land of Siam was born, there was the time when armies of invaders came to colonize the land and were mercilessly massacring population. One priest secretly gathered drawings of many animals from all over the world. He bonded the drawings in to a book with great supernatural powers. Then he gave the book to two headman of one Thai tribe to use these drawings to tattoo on his people and fight the invaders. When the land is rid of vandals and peace returns, the sacred book must be divided into many segments and passed on to the most trusted disciples to guard and preserve it. All segments of the sacred book must never fall in to hands of those who seek absolute power.
The time passed and ages went by, the sacred book once again emerged into the hands of rivals. All stories confirm that they were invincible because they were protected by tattoos with supernatural powers. When the segments of the sacred book once again collide, the blood battle of the supernatural animals begins.

General Info:
Complete name : Hanuman.The.White.Monkey.Warrior.2008.DVDRip.H264.AAC-D34dLy.mp4
Format : MPEG-4
Format profile : Base Media
Codec ID : isom
File size : 350 MiB
Duration : 1h 37mn
Overall bit rate : 499 Kbps

Video Info:
ID : 1
Format : AVC
Format/Info : Advanced Video Codec
Format profile : High@L3.2
Format settings, CABAC : Yes
Format settings, ReFrames : 3 frames
Codec ID : avc1
Codec ID/Info : Advanced Video Coding
Duration : 1h 37mn
Bit rate mode : Variable
Bit rate : 450 Kbps
Maximum bit rate : 3 879 Kbps
Width : 608 pixels
Height : 320 pixels
Display aspect ratio : 1.900
Frame rate mode : Constant
Frame rate : 25.000 fps
Resolution : 8 bits
Colorimetry : 4:2:0
Scan type : Progressive
Bits/(Pixel*Frame) : 0.093
Stream size : 314 MiB (90%)
Title : Imported with GPAC 0.4.6-DEV (build 1)
Writing library : x264 core 80 r1376M 3feaec2

Audio Info:
ID : 2
Format : AAC
Format/Info : Advanced Audio Codec
Format version : Version 4
Format profile : LC
Format settings, SBR : Yes
Format settings, PS : No
Codec ID : 40
Duration : 1h 37mn
Bit rate mode : Variable
Bit rate : 48.0 Kbps
Maximum bit rate : 67.6 Kbps
Channel(s) : 2 channels
Channel positions : Front: L R
Sampling rate : 48.0 KHz
Stream size : 33.5 MiB (10%)



Screenshots:[/i][/b]

 
http://img203.imageshack.us/img203/9943/38266771.jpg 
http://img263.imageshack.us/img263/6218/21828492.jpg 
http://img42.imageshack.us/img42/7044/aaamb.jpg 
http://img576.imageshack.us/img576/4126/aaaab.jpg 
http://img101.imageshack.us/img101/2491/aaaaawy.jpg 
http://img188.imageshack.us/img188/1246/hanumanthewhitemonkeywa.jpg

